<?xml version="1.0" standalone="no"?>
<!DOCTYPE svg PUBLIC "-//W3C//DTD SVG 20010904//EN"
 "http://www.w3.org/TR/2001/REC-SVG-20010904/DTD/svg10.dtd">
<svg version="1.0" xmlns="http://www.w3.org/2000/svg"
 width="512.000000pt" height="512.000000pt" viewBox="0 0 512.000000 512.000000"
 preserveAspectRatio="xMidYMid meet">
<metadata>
Created by potrace 1.14, written by Peter Selinger 2001-2017
</metadata>
<g transform="translate(0.000000,512.000000) scale(0.100000,-0.100000)"
fill="#000000" stroke="none">
<path d="M2389 4806 c-2 -2 -38 -6 -79 -9 -326 -26 -709 -148 -1024 -326 -81
-46 -285 -187 -342 -237 -12 -11 -45 -38 -72 -62 -28 -23 -91 -84 -141 -135
-414 -424 -661 -950 -720 -1537 -13 -125 -12 -1463 0 -1529 20 -105 85 -205
174 -270 94 -68 161 -88 312 -90 l103 -2 0 751 0 752 -107 -3 c-60 -2 -127 -9
-151 -16 l-44 -13 3 167 c3 149 6 196 24 338 11 90 53 270 85 367 111 332 295
633 535 873 60 61 126 124 145 140 270 228 579 389 905 472 55 14 107 26 115
28 8 1 44 8 80 14 127 22 227 29 410 26 200 -4 222 -6 380 -36 360 -69 704
-227 995 -458 83 -66 275 -255 331 -326 21 -27 43 -54 47 -60 190 -240 364
-612 414 -885 2 -14 8 -43 13 -65 5 -22 12 -62 16 -90 3 -27 8 -59 11 -70 2
-11 7 -113 10 -227 l6 -207 -50 13 c-28 8 -96 14 -152 15 l-101 2 0 -751 0
-752 108 3 c115 2 177 16 257 57 58 29 146 116 178 175 53 102 51 68 53 847 2
774 -1 846 -51 1100 -62 317 -243 712 -454 990 -160 213 -414 458 -585 566
-25 16 -46 32 -46 37 0 4 -4 7 -10 7 -5 0 -38 18 -72 41 -147 95 -453 230
-638 282 -94 26 -247 58 -355 73 -27 3 -59 9 -70 11 -23 5 -441 14 -446 9z"/>
<path d="M1120 2396 c-96 -25 -169 -94 -202 -190 -16 -47 -17 -110 -15 -856 1
-443 5 -815 9 -827 24 -79 102 -162 181 -191 54 -20 220 -30 290 -17 40 8 89
49 105 90 10 23 12 248 10 970 l-3 940 -25 33 c-14 19 -40 40 -59 48 -42 18
-227 18 -291 0z"/>
<path d="M3701 2389 c-87 -53 -81 18 -81 -1026 l0 -927 21 -44 c34 -70 80 -85
233 -80 95 3 131 9 168 25 65 30 132 101 157 169 21 54 21 67 19 873 l-3 817
-35 58 c-70 116 -148 153 -329 155 -102 1 -120 -1 -150 -20z"/>
</g>
</svg>
